<?xml version="1.0" encoding="utf-8"?>
<!-- Generator: Adobe Illustrator 19.0.0, SVG Export Plug-In . SVG Version: 6.00 Build 0)  -->
<svg version="1.1" id="Layer_1" xmlns="http://www.w3.org/2000/svg" xmlns:xlink="http://www.w3.org/1999/xlink" x="0px" y="0px"
	 viewBox="0 0 24 24" style="enable-background:new 0 0 24 24;" xml:space="preserve">
<path id="XMLID_16_" style="fill:#253E91;" d="M18,5c-2,0-3.7,1-4.8,2.5L7.9,4.8C8,4.6,8,4.3,8,4c0-2.2-1.8-4-4-4S0,1.8,0,4
	c0,1.9,1.4,3.6,3.2,3.9l0.5,8.3C2.2,16.7,1,18.2,1,20c0,2.2,1.8,4,4,4s4-1.8,4-4c0-0.5-0.1-0.9-0.3-1.4l5-3.4
	c1.1,1.1,2.6,1.8,4.3,1.8c3.3,0,6-2.7,6-6S21.3,5,18,5z M7.6,17c-0.5-0.4-1.1-0.8-1.8-0.9L5.2,7.8C5.9,7.6,6.5,7.2,7,6.6l5.3,2.6
	C12.1,9.8,12,10.4,12,11c0,0.9,0.2,1.8,0.6,2.5L7.6,17z"/>
</svg>
