<?xml version="1.0" encoding="utf-8"?>
<!-- Generator: Adobe Illustrator 19.0.0, SVG Export Plug-In . SVG Version: 6.00 Build 0)  -->
<svg version="1.1" id="Layer_1" xmlns="http://www.w3.org/2000/svg" xmlns:xlink="http://www.w3.org/1999/xlink" x="0px" y="0px"
	 viewBox="0 0 24 24" style="enable-background:new 0 0 24 24;" xml:space="preserve">
<path id="XMLID_2_" style="fill:#253E91;" d="M15.5,13c-0.8,0-1.5-0.7-1.5-1.5c0-0.7,0.4-1.2,1.1-1.4C14.2,9.4,13.2,9,12,9
	c-2.8,0-5,2.2-5,5s2.2,5,5,5s5-2.2,5-5c0-0.6-0.1-1.1-0.3-1.6C16.4,12.8,16,13,15.5,13z"/>
<path id="XMLID_20_" style="fill:#253E91;" d="M23.8,13.5c-0.1-0.1-1.4-2.2-4-4c0,0,0,0,0-0.1l1-2c0.2-0.5,0-1.1-0.4-1.3
	c-0.5-0.2-1.1,0-1.3,0.4l-1,1.9C16.7,7.7,15,7.2,13,7.1V5c0-0.6-0.4-1-1-1s-1,0.4-1,1v2.1C9,7.2,7.3,7.7,5.9,8.5l-1-1.9
	C4.6,6.1,4,5.9,3.6,6.1C3.1,6.4,2.9,7,3.1,7.4l1,2c0,0,0,0,0,0.1c-2.5,1.8-3.9,3.8-4,4c-0.2,0.3-0.2,0.7,0,1.1
	C0.3,14.8,4.4,21,12,21c7.6,0,11.7-6.2,11.8-6.5C24.1,14.2,24.1,13.8,23.8,13.5z M12,19c-5.3,0-8.7-3.6-9.8-5c1.1-1.4,4.5-5,9.8-5
	c5.3,0,8.7,3.6,9.8,5C20.7,15.4,17.3,19,12,19z"/>
</svg>
