<?xml version="1.0" encoding="utf-8"?>
<!-- Generator: Adobe Illustrator 19.0.0, SVG Export Plug-In . SVG Version: 6.00 Build 0)  -->
<svg version="1.1" id="Layer_1" xmlns="http://www.w3.org/2000/svg" xmlns:xlink="http://www.w3.org/1999/xlink" x="0px" y="0px"
	 viewBox="0 0 18 18" style="enable-background:new 0 0 18 18;" xml:space="preserve">
<path id="XMLID_6_" style="fill:#253E91;" d="M14,0H4C1.8,0,0,1.8,0,4v10c0,2.2,1.8,4,4,4h10c2.2,0,4-1.8,4-4V4C18,1.8,16.2,0,14,0z
	 M14.8,6.7l-6,7C8.6,13.9,8.3,14,8,14c0,0,0,0,0,0c-0.3,0-0.5-0.1-0.7-0.3l-4-4c-0.4-0.4-0.4-1,0-1.4s1-0.4,1.4,0l3.2,3.2l5.3-6.2
	c0.4-0.4,1-0.5,1.4-0.1C15.1,5.6,15.1,6.2,14.8,6.7z"/>
</svg>
