<?xml version="1.0" encoding="utf-8"?>
<!-- Generator: Adobe Illustrator 19.0.0, SVG Export Plug-In . SVG Version: 6.00 Build 0)  -->
<svg version="1.1" id="Layer_1" xmlns="http://www.w3.org/2000/svg" xmlns:xlink="http://www.w3.org/1999/xlink" x="0px" y="0px"
	 viewBox="0 0 24 24" style="enable-background:new 0 0 24 24;" xml:space="preserve">
<path id="XMLID_9_" style="fill:#253E91;" d="M23,4H1C0.4,4,0,3.6,0,3s0.4-1,1-1h22c0.6,0,1,0.4,1,1S23.6,4,23,4z"/>
<path id="XMLID_7_" style="fill:#253E91;" d="M23,13H1c-0.6,0-1-0.4-1-1s0.4-1,1-1h22c0.6,0,1,0.4,1,1S23.6,13,23,13z"/>
<path id="XMLID_5_" style="fill:#253E91;" d="M23,22H1c-0.6,0-1-0.4-1-1s0.4-1,1-1h22c0.6,0,1,0.4,1,1S23.6,22,23,22z"/>
</svg>
