<?xml version="1.0" encoding="utf-8"?>
<!-- Generator: Adobe Illustrator 19.0.0, SVG Export Plug-In . SVG Version: 6.00 Build 0)  -->
<svg version="1.1" id="Layer_1" xmlns="http://www.w3.org/2000/svg" xmlns:xlink="http://www.w3.org/1999/xlink" x="0px" y="0px"
	 viewBox="0 0 24 24" style="enable-background:new 0 0 24 24;" xml:space="preserve">
<path id="XMLID_1_" style="fill:#253E91;" d="M20.6-0.1c0,0-1.4,1.7-4.6,2.3C13.1,2.8,7.6,3.4,3.9,7.2c-4.8,5-0.9,11.7-0.9,11.7
	s1.1-1.3,4.2-2.6c7.5-3,11.1-10.5,11.1-10.5s-2.7,8.7-10.6,12C4.3,19.1,1,24,1,24s0.8,0,2.1,0c1.5,0,2.2-3.6,3.4-3.1
	c7.3,2.9,13.4,0.6,15.4-7C23.7,7.6,20.6-0.1,20.6-0.1z"/>
</svg>
