<?xml version="1.0" encoding="utf-8"?>
<!-- Generator: Adobe Illustrator 19.0.0, SVG Export Plug-In . SVG Version: 6.00 Build 0)  -->
<svg version="1.1" id="Layer_1" xmlns="http://www.w3.org/2000/svg" xmlns:xlink="http://www.w3.org/1999/xlink" x="0px" y="0px"
	 viewBox="0 0 18 18" style="enable-background:new 0 0 18 18;" xml:space="preserve">
<g id="XMLID_4_">
	<path id="XMLID_3_" style="fill:#253E91;" d="M14,1c1.7,0,3,1.3,3,3v10c0,1.7-1.3,3-3,3H4c-1.7,0-3-1.3-3-3V4c0-1.7,1.3-3,3-3H14
		 M14,0H4C1.8,0,0,1.8,0,4v10c0,2.2,1.8,4,4,4h10c2.2,0,4-1.8,4-4V4C18,1.8,16.2,0,14,0L14,0z"/>
</g>
</svg>
