<?xml version="1.0" encoding="utf-8"?>
<!-- Generator: Adobe Illustrator 19.0.0, SVG Export Plug-In . SVG Version: 6.00 Build 0)  -->
<svg version="1.1" id="Layer_1" xmlns="http://www.w3.org/2000/svg" xmlns:xlink="http://www.w3.org/1999/xlink" x="0px" y="0px"
	 viewBox="0 0 664 128" style="enable-background:new 0 0 664 128;" xml:space="preserve">
<g id="XMLID_105_">
	<path id="XMLID_970_" style="fill:#243F91;" d="M479,32.7h-2.3c-2.1,0-4.2,0.8-5.7,2.3l-24,24l-24-24c-1.5-1.5-3.5-2.3-5.7-2.3H415
		v64h0c4.4,0,8-3.6,8-8V46.3l24,24l24-24v42.3c0,4.4,3.6,8,8,8l0,0V32.7z"/>
	<rect id="XMLID_969_" x="511" y="64.7" style="fill:#243F91;" width="32" height="8"/>
	<path id="XMLID_968_" style="fill:#243F91;" d="M495,96.7h3.6c3.2,0,6-1.9,7.3-4.8L527,44.4l21.1,47.6c1.3,2.9,4.1,4.8,7.3,4.8h3.6
		l-26.3-59.2c-1.3-2.9-4.1-4.8-7.3-4.8h-1.9L495,96.7z"/>
	<path id="XMLID_965_" style="fill:#243F91;" d="M367,32.7c-17.7,0-32,14.3-32,32s14.3,32,32,32s32-14.3,32-32S384.6,32.7,367,32.7z
		 M367,88.7c-13.2,0-24-10.8-24-24s10.8-24,24-24s24,10.8,24,24S380.2,88.7,367,88.7z"/>
	<path id="XMLID_964_" style="fill:#243F91;" d="M183,40.7v56h0c-4.4,0-8-3.6-8-8v-56l0,0C179.4,32.7,183,36.3,183,40.7z"/>
	<path id="XMLID_963_" style="fill:#243F91;" d="M279,96.7v-64h0c4.4,0,8,3.6,8,8v48C287,93.1,283.4,96.7,279,96.7L279,96.7z"/>
	<path id="XMLID_962_" style="fill:#243F91;" d="M311,68.7l-24,0v-8l32,0v0C319,65.1,315.4,68.7,311,68.7z"/>
	<path id="XMLID_961_" style="fill:#243F91;" d="M311,40.7l-32,0v-8l40,0v0C319,37.1,315.4,40.7,311,40.7z"/>
	<path id="XMLID_960_" style="fill:#243F91;" d="M575,96.7v-64h8v56C583,93.1,579.4,96.7,575,96.7L575,96.7z"/>
	<rect id="XMLID_959_" x="583" y="32.7" style="fill:#243F91;" width="28" height="8"/>
	<rect id="XMLID_958_" x="599" y="64.7" style="fill:#243F91;" width="12" height="8"/>
	<path id="XMLID_956_" style="fill:#243F91;" d="M611,72.7c11,0,20-9,20-20c0-11-9-20-20-20v8c6.6,0,12,5.4,12,12s-5.4,12-12,12
		V72.7z"/>
	<path id="XMLID_955_" style="fill:#243F91;" d="M591,72.7h8v-8C594.5,64.7,591,68.3,591,72.7z"/>
	<path id="XMLID_954_" style="fill:#243F91;" d="M251,40.7v40.8l-40.3-46.1c-1.5-1.7-3.7-2.7-6-2.7H203v56c0,4.4,3.6,8,8,8V47.9
		l40.3,46.1c1.5,1.7,3.7,2.7,6,2.7h1.7v-64C254.5,32.7,251,36.3,251,40.7z"/>
	<path id="XMLID_953_" style="fill:#243F91;" d="M69,49.6l5,8.7l19.1-11c1-0.6,1.3-1.8,0.7-2.7l-5-8.7l-19.1,11
		C68.8,47.4,68.5,48.7,69,49.6z"/>
	<path id="XMLID_952_" style="fill:#7893CB;" d="M139.9,80.3c1-0.6,1.3-1.8,0.7-2.7l-31-53.7l-17.3,10l5,8.7
		c1.7,2.9,0.7,6.5-2.2,8.2L76,61.8l4,6.9l12.1-7c2.9-1.7,6.5-0.7,8.2,2.2l17,29.4L139.9,80.3z"/>
	<path id="XMLID_951_" style="fill:#813636;" d="M94.2,65.1l-12.1,7l18,31.2l13.9-8l-17-29.4C96.3,64.9,95.1,64.6,94.2,65.1z"/>
	
		<rect id="XMLID_950_" x="48.4" y="70.2" transform="matrix(0.866 -0.5 0.5 0.866 -28.7428 41.1618)" style="fill:#EB4140;" width="28" height="8"/>
	<path id="XMLID_949_" style="fill:#BBCEEA;" d="M90.3,30.4l17.3-10l-5-8.7c-0.6-1-1.8-1.3-2.7-0.7l-15.6,9L90.3,30.4z"/>
	<path id="XMLID_948_" style="fill:#F48788;" d="M74,118.3l22.5-13l-18-31.2l-24.2,14l17,29.4C71.9,118.5,73.1,118.9,74,118.3z"/>
	<path id="XMLID_947_" style="fill:#FBC8C2;" d="M34,49c-1,0.6-1.3,1.8-0.7,2.7l13,22.5l24.2-14l-5-8.7c-1.7-2.9-0.7-6.5,2.2-8.2
		l19.1-11l-6-10.4L34,49z"/>
</g>
</svg>
