<?xml version="1.0" encoding="utf-8"?>
<!-- Generator: Adobe Illustrator 19.0.0, SVG Export Plug-In . SVG Version: 6.00 Build 0)  -->
<svg version="1.1" id="Layer_1" xmlns="http://www.w3.org/2000/svg" xmlns:xlink="http://www.w3.org/1999/xlink" x="0px" y="0px"
	 viewBox="0 0 803 136.1" style="enable-background:new 0 0 803 136.1;" xml:space="preserve">
<g id="XMLID_208_">
	<rect id="XMLID_209_" x="224.2" y="19.3" style="fill:#273994;" width="11.3" height="95.4"/>
	<polygon id="XMLID_259_" style="fill:#273994;" points="319.2,89.2 258.8,19.7 258.5,19.3 255,19.3 255,114.7 266.6,114.7 
		266.6,45.7 326.8,114.7 330.4,114.7 330.4,19.3 319.2,19.3 	"/>
	<polygon id="XMLID_260_" style="fill:#273994;" points="351.1,114.7 362.4,114.7 362.4,68.9 399.9,68.9 399.9,57.7 362.4,57.7 
		362.4,30.5 399.9,30.5 399.9,19.3 351.1,19.3 	"/>
	<path id="XMLID_263_" style="fill:#273994;" d="M459.6,17c-8.9,0-17.2,2.2-24.8,6.6c-7.6,4.4-13.7,10.6-18.1,18.4
		c-4.4,7.8-6.6,16.3-6.6,25.4c0,13.7,4.9,25.5,14.6,35.1c9.7,9.6,21.7,14.5,35.8,14.5c13.9,0,25.8-4.9,35.5-14.6
		c9.7-9.7,14.6-21.6,14.6-35.5c0-14-4.9-26-14.6-35.6C486.1,21.8,473.9,17,459.6,17z M498.7,67c0,7.2-1.7,13.9-5.1,19.8
		c-3.3,5.9-8.1,10.6-14.1,14c-6,3.4-12.6,5.1-19.6,5.1c-10.5,0-19.6-3.8-27.1-11.2c-7.5-7.4-11.2-16.6-11.2-27.4
		c0-7.3,1.7-14,5.1-19.9c3.4-5.9,8.1-10.7,14.1-14.2c6-3.5,12.4-5.3,19.1-5.3c6.8,0,13.4,1.8,19.5,5.3c6.1,3.5,10.9,8.2,14.2,14
		C497,53.2,498.7,59.8,498.7,67z"/>
	<polygon id="XMLID_264_" style="fill:#273994;" points="616.7,19.3 613.7,19.3 576.7,94.7 539.6,19.9 539.4,19.3 536.4,19.3 
		522.7,114.7 533.8,114.7 542.6,49.8 574.6,114.1 574.8,114.7 578.5,114.7 610.3,50.3 619.2,114.7 630.4,114.7 616.8,20.2 	"/>
	<path id="XMLID_267_" style="fill:#273994;" d="M686.4,19.3h-3.6l-45.1,95.4h12.6L664.9,84h39l14.7,30.7h12.3l-44.2-94.8
		L686.4,19.3z M698.9,73h-28.8l14.4-30.5L698.9,73z"/>
	<path id="XMLID_270_" style="fill:#273994;" d="M797.7,29.2c-3.5-4.2-8.1-7.1-13.6-8.4c-3.8-1-11-1.4-21.8-1.4h-19.6v95.4H754V71.3
		h5.7c11.8,0,19.6-0.5,24-1.6c6-1.4,10.8-4.3,14.2-8.5c3.4-4.2,5.2-9.6,5.2-16C803,38.8,801.2,33.4,797.7,29.2z M791.4,45.2
		c0,3-0.8,5.7-2.4,8.2c-1.6,2.4-3.8,4.2-6.5,5.3c-2.8,1.1-7.4,1.7-13.7,1.7L754,60.2V30.5h15.5c6.1,0,10.6,0.5,13.2,1.6
		c2.6,1,4.7,2.8,6.2,5.2C790.6,39.6,791.4,42.3,791.4,45.2z"/>
</g>
<g id="XMLID_206_">
	<linearGradient id="XMLID_93_" gradientUnits="userSpaceOnUse" x1="0" y1="98.3821" x2="171.209" y2="98.3821">
		<stop  offset="1.204571e-03" style="stop-color:#21BBAF"/>
		<stop  offset="0.2386" style="stop-color:#35BCAB"/>
		<stop  offset="0.5881" style="stop-color:#57C09E"/>
		<stop  offset="1" style="stop-color:#7BC689"/>
	</linearGradient>
	<polygon id="XMLID_201_" style="fill:url(#XMLID_93_);" points="85.6,92.1 23.2,60.7 0,65.1 85.6,136.1 171.2,65.1 148,60.7 	"/>
	<linearGradient id="XMLID_94_" gradientUnits="userSpaceOnUse" x1="8.4546" y1="20.1694" x2="162.7544" y2="20.1694">
		<stop  offset="0" style="stop-color:#F15C22"/>
		<stop  offset="1" style="stop-color:#FEDD10"/>
	</linearGradient>
	<polygon id="XMLID_115_" style="fill:url(#XMLID_94_);" points="162.8,14.7 85.6,0 8.5,14.7 85.6,40.3 	"/>
	<linearGradient id="XMLID_95_" gradientUnits="userSpaceOnUse" x1="4.0151" y1="57.4277" x2="167.1938" y2="57.4277">
		<stop  offset="1.204571e-03" style="stop-color:#4362AE"/>
		<stop  offset="0.1323" style="stop-color:#4466B0"/>
		<stop  offset="0.3253" style="stop-color:#4671B7"/>
		<stop  offset="0.5565" style="stop-color:#4983C4"/>
		<stop  offset="0.8152" style="stop-color:#4C9ED7"/>
		<stop  offset="0.9988" style="stop-color:#50B5E7"/>
	</linearGradient>
	<polygon id="XMLID_202_" style="fill:url(#XMLID_95_);" points="85.6,50.9 34.6,33.9 4,39.7 85.6,80.9 167.2,39.7 136.6,33.9 	"/>
</g>
</svg>
